PathFileType	4	(X/Y/Z)	0_1_34_p1_0-240.trc
DataRate	CameraRate	NumFrames	NumMarkers	Units	OrigDataRate	OrigDataStartFrame	OrigNumFrames
60	60	4	27	m	60	210	240
Frame#	Time	RHip			RKnee			RAnkle			RBigToe			RSmallToe			RHeel			LHip			LKnee			LAnkle			LBigToe			LSmallToe			LHeel			Neck			Head			Nose			RShoulder			RElbow			RWrist			RThumb			RIndex			RPinky			LShoulder			LElbow			LWrist			LThumb			LIndex			LPinky		
		X1	Y1	Z1	X2	Y2	Z2	X3	Y3	Z3	X4	Y4	Z4	X5	Y5	Z5	X6	Y6	Z6	X7	Y7	Z7	X8	Y8	Z8	X9	Y9	Z9	X10	Y10	Z10	X11	Y11	Z11	X12	Y12	Z12	X13	Y13	Z13	X14	Y14	Z14	X15	Y15	Z15	X16	Y16	Z16	X17	Y17	Z17	X18	Y18	Z18	X19	Y19	Z19	X20	Y20	Z20	X21	Y21	Z21	X22	Y22	Z22	X23	Y23	Z23	X24	Y24	Z24	X25	Y25	Z25	X26	Y26	Z26	X27	Y27	Z27
211	3.5166666666666666	0.10813386232387046	0.20378657190102478	0.01634504879241374	0.12328690147987652	0.18415362489012782	-0.3684272249071556	0.165627024556824	0.2220545684905118	-0.7502010990519203	0.18104294182254166	0.0721634316445613	-0.7861379116490225	0.10543859556845112	0.09935599556150575	-0.7958485014120085	0.18454459089652672	0.2621560733870195	-0.8206978271411322	0.3319493170222511	0.20545748578615647	0.012636507141708631	0.3427703967108114	0.18234518419409693	-0.3725548200547954	0.3497393382196463	0.27336529094062123	-0.7847212968490702	0.3210148182850854	0.0820709456710643	-0.7957273273560166	0.37655062176594223	0.12877226283854915	-0.7975166110812851	0.33548928492409963	0.28876691042740077	-0.8406466965408894	0.20772310038134872	0.3094467457658426	0.5448373334384597	0.18498241910479338	0.29912173524909863	0.7918011769811966	0.1820768777143115	0.18226789955691747	0.6778806162755456	0.055539295235890886	0.31878749296208514	0.4664963302991977	0.0167198279179409	0.2319217910448806	0.22075513305944225	0.16422258426702427	0.08955434924811423	0.0962122419088333	0.2496339196989433	0.0667069218442375	0.03320982695535878	0.2552215430691482	0.09268193363672403	0.01288381858901807	0.2351826255447691	0.13148066225163507	-0.01670220169434231	0.3653918485967498	0.2733888877400272	0.4874841972171718	0.42115970449171525	0.2290457201020868	0.234837433415904	0.2668090881728265	0.09540537724777927	0.10267459410988841	0.19047130072831786	0.09078257286505244	0.03193683799870982	0.18788154461352324	0.09153210562468293	0.011403061177604992	0.22943848856883817	0.12280846958040564	9.279935900073603e-05
212	3.533333333333333	0.10854043880119883	0.20168365988982848	0.008797441018361841	0.12808310288626934	0.196273307784843	-0.3891544996608174	0.16589844551007069	0.2236763185735928	-0.7466320201342953	0.18023304398305734	0.07339090387911343	-0.7908347467038731	0.10490631178147938	0.1023435856383863	-0.7970569995043294	0.1856841828284121	0.26283435490709356	-0.8210345438473952	0.331698765910525	0.20435536669627422	0.009142899836013584	0.34274048949384833	0.18209087157862125	-0.3723516812273133	0.3508752820121312	0.27243638637896184	-0.7890098787357609	0.31707633394048157	0.08434632698473857	-0.7972761728815684	0.3758946742625575	0.12982675360389656	-0.8030194864450148	0.33547192546747473	0.2884703242819211	-0.8402166989862919	0.20781322991012585	0.30935478672230105	0.5447828109264233	0.18956842474975485	0.3114795199076153	0.7899946076503614	0.18208728777936112	0.18232633339238621	0.6778222866847166	0.05575842228682546	0.31824441144722726	0.47076267498863134	0.016641077037985053	0.23194826041427952	0.2207387512453082	0.1642482956285124	0.08945536152144848	0.09636669016534867	0.24715994139564046	0.04285452213990345	0.05115517980605636	0.25768718935029367	0.08026596168456132	0.025880638255941554	0.23567587574844717	0.13124511115812623	-0.016606961455489646	0.37091988485563104	0.28573801302450386	0.4843181198549421	0.4213456637814225	0.22814565237701445	0.23134163364443422	0.26723082415119626	0.09443573028564917	0.10687817093380747	0.19173953153789247	0.05763118154707724	0.05056802426904864	0.18371887781938964	0.07909087101367115	0.017626517577078858	0.23391575800093076	0.11841110226685295	0.005304192336902566
213	3.55	0.10777708094630965	0.20201366408650462	0.017316091237689072	0.12302215223148391	0.18254745434747813	-0.35401856355117045	0.16556188471379468	0.2218956609417565	-0.7500484254648908	0.1805014920510267	0.07326484538141693	-0.7870752103548375	0.10090749146201272	0.10475935024461648	-0.7947411409956945	0.18562889257440948	0.26295167040714873	-0.821045592857912	0.3309670199231761	0.2039741736241252	0.010122708401691192	0.3390022969463943	0.16582006867352256	-0.3491871560111292	0.35024728685498735	0.27458609540220885	-0.7809920672168102	0.32195317747971935	0.08059814371314113	-0.7900674619880415	0.37036550611388586	0.1155741996594402	-0.78698614160531	0.33604630100056576	0.29017167028916185	-0.8485862801936439	0.20784108543937763	0.3094476082934898	0.5447501165750267	0.18960154954713673	0.3115473058377321	0.7898724671422059	0.18207322666046183	0.18272776638280605	0.6776652174079738	0.0558110192727709	0.3183144791260123	0.47091499713487056	0.01608209194396273	0.23369254242794318	0.22739508328295432	0.16449384103310472	0.0885695355242297	0.10063987839039504	0.23662282344906077	0.018341906923727336	0.059425674682449865	0.2527478770521907	0.06796028193651946	0.03164307539267197	0.23231228902983667	0.13012572039441025	-0.01698714939076426	0.37092855199890973	0.28594231710203244	0.48428586767229825	0.41557281084990216	0.21567317542329026	0.24318446579225436	0.26245746892796334	0.08140496473811307	0.11594038025771043	0.17825319273530651	0.05797727142664073	0.046466144924868856	0.17428443806556893	0.06979406737869927	0.02199972869444043	0.2289898586237843	0.10360620538603046	0.007514413959840871
214	3.566666666666667	0.10359985537265612	0.20535452410231006	0.0160896536281018	0.12317191148447104	0.18400502391254947	-0.3502687958083159	0.16888307380929704	0.22005424366312504	-0.753412763544508	0.1806493861881098	0.07292309922291043	-0.7868476321356217	0.10545373907639013	0.10150289792436543	-0.7925589974494698	0.18527859541574085	0.26089694621533593	-0.8246699230803451	0.3311241006892735	0.20531043498595872	0.013646000122968299	0.3353331503857137	0.1701834674380095	-0.34683354783098347	0.34993897943819297	0.2724721859656958	-0.7841535046270003	0.32422810953698117	0.0688488525286518	-0.7815302500363892	0.3763978883920821	0.12875468262947887	-0.7969580468834057	0.3353311432125594	0.2885122537336753	-0.8412791603317548	0.20514140005882786	0.32175159856010394	0.5420058528443245	0.18967909289280085	0.31167646913375907	0.7898482870922481	0.1820615922197411	0.18275871874697486	0.6775680656671376	0.05574146437166196	0.31838190852867243	0.470754342652322	0.016334637679972015	0.23281230150423188	0.2241893082750156	0.1645490334804397	0.08843809506807665	0.10070715173851093	0.22641942986228597	-0.0027750076334477933	0.06919021753616006	0.2500070219322073	0.04379746506060189	0.04206627983162026	0.22547845906897895	0.10734820521329151	-0.006648502692159452	0.37093098118666046	0.28581598292256644	0.4843246098535738	0.4139253076751981	0.2269665189748447	0.2433229377292582	0.2624406650859446	0.08073557299820529	0.116437320525037	0.17880247738542213	0.05610685623036151	0.04337726289806043	0.17928085058994248	0.06429408180205876	0.023826391741081254	0.23142128026540665	0.09452947854525723	0.016196063738845762
